<svg width="658" height="658" viewBox="0 0 658 658" fill="none" xmlns="http://www.w3.org/2000/svg">
<g filter="url(#filter0_d_83_38)">
<path fill-rule="evenodd" clip-rule="evenodd" d="M654 325C654 409.369 621.851 486.23 569.136 544H88.8638C36.1485 486.23 4 409.369 4 325C4 145.507 149.507 0 329 0C383.509 0 434.883 13.4191 480 37.1339V325H654Z" fill="#FCFFFF"/>
<path d="M480 325H654C654 200.016 583.449 91.5102 480 37.1339V325Z" fill="#FCFFFF"/>
<g filter="url(#filter1_i_83_38)">
<circle cx="329" cy="325" r="299" stroke="#021526" stroke-width="2"/>
</g>
<path d="M242.566 318.8V476.6C257.366 482.2 268.366 489.6 275.566 498.8L269.566 545H151.966L145.966 498.8C153.166 489.6 164.166 482.2 178.966 476.6V199.4C162.566 193.4 151.166 186 144.766 177.2L150.766 131H274.366L393.766 363.8C402.566 380.6 411.166 403 419.566 431L423.766 445.4L430.366 443C424.766 408.2 421.966 379 421.966 355.4V200C407.566 194.4 396.566 186.8 388.966 177.2L394.966 131H512.566L518.566 177.2C510.966 186.8 499.966 194.4 485.566 200V545H391.366L270.766 310.4C261.966 293.6 253.366 271 244.966 242.6L240.766 228.8L234.166 231.2C239.766 266 242.566 295.2 242.566 318.8Z" fill="#021526"/>
</g>
<defs>
<filter id="filter0_d_83_38" x="0" y="0" width="658" height="658" filterUnits="userSpaceOnUse" color-interpolation-filters="sRGB">
<feFlood flood-opacity="0" result="BackgroundImageFix"/>
<feColorMatrix in="SourceAlpha" type="matrix" values="0 0 0 0 0 0 0 0 0 0 0 0 0 0 0 0 0 0 127 0" result="hardAlpha"/>
<feOffset dy="4"/>
<feGaussianBlur stdDeviation="2"/>
<feComposite in2="hardAlpha" operator="out"/>
<feColorMatrix type="matrix" values="0 0 0 0 0 0 0 0 0 0 0 0 0 0 0 0 0 0 0.25 0"/>
<feBlend mode="normal" in2="BackgroundImageFix" result="effect1_dropShadow_83_38"/>
<feBlend mode="normal" in="SourceGraphic" in2="effect1_dropShadow_83_38" result="shape"/>
</filter>
<filter id="filter1_i_83_38" x="29" y="25" width="600" height="604" filterUnits="userSpaceOnUse" color-interpolation-filters="sRGB">
<feFlood flood-opacity="0" result="BackgroundImageFix"/>
<feBlend mode="normal" in="SourceGraphic" in2="BackgroundImageFix" result="shape"/>
<feColorMatrix in="SourceAlpha" type="matrix" values="0 0 0 0 0 0 0 0 0 0 0 0 0 0 0 0 0 0 127 0" result="hardAlpha"/>
<feOffset dy="4"/>
<feGaussianBlur stdDeviation="2"/>
<feComposite in2="hardAlpha" operator="arithmetic" k2="-1" k3="1"/>
<feColorMatrix type="matrix" values="0 0 0 0 0 0 0 0 0 0 0 0 0 0 0 0 0 0 0.25 0"/>
<feBlend mode="normal" in2="shape" result="effect1_innerShadow_83_38"/>
</filter>
</defs>
</svg>
