<svg width="35" height="33" viewBox="0 0 35 33" fill="none" xmlns="http://www.w3.org/2000/svg">
<path d="M29.8958 7.82389H8.02083C6.87021 7.82389 5.78958 7.27556 5.10417 6.36702C5.77063 5.48181 6.83083 4.90723 8.02083 4.90723H32.8125C35.6883 4.85764 35.6869 0.580352 32.8125 0.532227H8.02083C3.59917 0.532227 0 4.12994 0 8.55306V24.5947C0 29.0179 3.59917 32.6156 8.02083 32.6156H29.8958C32.7104 32.6156 35 30.326 35 27.5114V12.9281C35 10.1135 32.7104 7.82389 29.8958 7.82389ZM30.625 27.5114C30.625 27.9139 30.2969 28.2406 29.8958 28.2406H8.02083C6.00979 28.2406 4.375 26.6043 4.375 24.5947V11.3181C5.48771 11.8868 6.73458 12.1989 8.02083 12.1989H29.8958C30.2969 12.1989 30.625 12.5256 30.625 12.9281V27.5114ZM27.7083 20.2197C27.6588 23.0956 23.3815 23.0941 23.3333 20.2197C23.3829 17.3439 27.6602 17.3454 27.7083 20.2197Z" fill="#0D3559"/>
</svg>
