<svg width="35" height="30" viewBox="0 0 35 30" fill="none" xmlns="http://www.w3.org/2000/svg">
<path d="M17.5 0C7.52354 0 0 4.07458 0 9.47917V19.6875C0 25.0921 7.52354 29.1667 17.5 29.1667C27.4765 29.1667 35 25.0921 35 19.6875V9.47917C35 4.07458 27.4765 0 17.5 0ZM17.5 4.375C25.5121 4.375 30.625 7.39813 30.625 9.47917C30.625 11.5602 25.5121 14.5833 17.5 14.5833C9.48792 14.5833 4.375 11.5602 4.375 9.47917C4.375 7.39813 9.48792 4.375 17.5 4.375ZM15.3125 18.8913V24.7144C13.9956 24.6196 12.7765 24.4417 11.6667 24.204V18.4596C12.8246 18.6667 14.0437 18.8125 15.3125 18.8913ZM19.6875 18.8913C20.9563 18.8125 22.1754 18.6667 23.3333 18.4581V24.2025C22.2235 24.4402 21.0044 24.6181 19.6875 24.7129V18.8898V18.8913ZM4.375 19.6875V15.8813C5.24125 16.4063 6.21833 16.8744 7.29167 17.2769V22.7135C5.41479 21.7554 4.375 20.6252 4.375 19.6875ZM27.7083 22.7135V17.2769C28.7817 16.8729 29.7588 16.4048 30.625 15.8813V19.6875C30.625 20.6267 29.5852 21.7554 27.7083 22.7135Z" fill="#0D3559"/>
</svg>
